<!DOCTYPE svg PUBLIC "-//W3C//DTD SVG 1.1//EN" "http://www.w3.org/Graphics/SVG/1.1/DTD/svg11.dtd">
<!-- Uploaded to: SVG Repo, www.svgrepo.com, Transformed by: SVG Repo Mixer Tools -->
<svg fill="olivedrab" version="1.1" id="Capa_1" xmlns="http://www.w3.org/2000/svg" xmlns:xlink="http://www.w3.org/1999/xlink" width="800px" height="800px" viewBox="-45.27 -45.27 543.21 543.21" xml:space="preserve" stroke="olivedrab" transform="rotate(0)matrix(1, 0, 0, 1, 0, 0)">
<g id="SVGRepo_bgCarrier" stroke-width="0" transform="translate(0,0), scale(1)">
<rect x="-45.27" y="-45.27" width="543.21" height="543.21" rx="271.605" fill="transparent" strokewidth="0"/>
</g>
<g id="SVGRepo_tracerCarrier" stroke-linecap="round" stroke-linejoin="round" stroke="#CCCCCC" stroke-width="0.9053340000000001"/>
<g id="SVGRepo_iconCarrier"> <g> <g> <path d="M180.603,283.824c0.005-0.188,0.017-0.372,0.032-0.562c0.215-2.566,1.419-4.902,3.391-6.567l20.84-17.602h-24.258 L180.603,283.824z"/> <path d="M199.546,293.353l19.409-16.395c2.001-1.686,4.919-1.696,6.919-0.021l6.595,5.565c1.213,1.023,1.906,2.529,1.906,4.11 l0.005,103.277H253.5V285.756c-0.104-0.482-0.132-0.859-0.101-1.27l-29.96-25.302c-0.01,0-0.021,0.01-0.026,0.01 c-0.801,0.231-1.333,0.2-2.027,0.011l-29.575,24.977L199.546,293.353z"/> <path d="M151.286,213.506h42.32v-23.071c0-2.968,2.402-5.375,5.375-5.375c2.972,0,5.375,2.407,5.375,5.375v23.071h42.318 L198.981,87.969L151.286,213.506z"/> <path d="M437.03,159.225l-49.838-37.166c-1.9-2.284-4.315-4.084-7.061-5.263L228.414,3.672c-0.481-0.349-0.965-0.657-1.077-0.698 c-0.606-0.391-1.215-0.753-1.882-1.082c-0.425-0.209-0.856-0.386-1.462-0.622c-0.635-0.247-1.273-0.473-1.918-0.646 c-0.493-0.128-0.984-0.231-1.457-0.313c-0.704-0.128-1.399-0.236-2.21-0.288C218.156,0.005,217.171,0,217.016,0 c-0.706,0.005-1.399,0.039-2.144,0.131c-0.452,0.052-0.897,0.134-1.457,0.252c-0.671,0.134-1.338,0.294-2.118,0.548 c-0.512,0.166-1.005,0.37-1.478,0.58c-0.614,0.257-1.22,0.538-1.759,0.837c-0.569,0.317-1.124,0.686-1.27,0.809l-0.935,0.59 l-43.152,35.269c-2.076-8.135-9.463-14.171-18.234-14.171h-42.956c-10.373,0-18.814,8.441-18.814,18.814v60.743l-67.712,55.339 c-3.893,3.181-6.312,7.688-6.816,12.685c-0.506,5,0.974,9.895,4.145,13.777c3.585,4.396,8.895,6.918,14.577,6.918 c4.329,0,8.552-1.512,11.9-4.246l18.691-15.271v161.726c0,10.374,8.441,18.814,18.813,18.814c10.376,0,18.814-8.44,18.814-18.814 V142.852l87.05-71.143L128.43,213.141c-1.897,4.956-1.226,10.525,1.791,14.893c3.01,4.368,7.971,6.971,13.275,6.971h39.36v2.589 h-7.622c-8.893,0-16.127,7.237-16.127,16.126l-0.005,34.473h-4.415c-11.228,0.01-20.368,9.159-20.368,20.388v14.216 c0,1.438,0.152,2.861,0.462,4.264c-0.31,1.396-0.462,2.818-0.462,4.262v14.211c0,1.443,0.152,2.861,0.462,4.262 c-0.31,1.396-0.462,2.819-0.462,4.264v14.21c0,1.443,0.152,2.865,0.462,4.262c-0.305,1.396-0.462,2.812-0.467,4.262v14.221 c0,11.229,9.14,20.378,20.388,20.384h4.399v1.396c0,21.985,17.887,39.875,39.879,39.875c21.98,0,39.872-17.89,39.877-39.875 v-1.402h15.753c2.877,0,5.653-0.592,8.19-1.706c2.529,1.114,5.301,1.706,8.178,1.706h15.639c11.239,0,20.383-9.148,20.383-20.389 v-82.426c0-5.443-2.126-10.562-5.973-14.41c-3.854-3.852-8.973-5.973-14.416-5.973h-11.616v-2.431 c0-0.352-0.012-0.699-0.027-1.055c0.199-6.215-2.452-12.222-7.207-16.226l-30.955-26.138c-3.303-2.767-7.708-4.441-12.208-4.651 l-0.344-0.099h-9.146v-2.589h39.461c8.889,0,16.127-7.233,16.127-16.124c0-2.58-0.615-5.108-1.779-7.375L214.058,67.103 c-2.197-5.78-7.588-9.749-13.674-10.289l17.341-14.171L353.91,144.185v191.157c0,10.374,8.442,18.814,18.814,18.814 c10.378,0,18.814-8.44,18.814-18.814V172.238l23.013,17.16c3.276,2.438,7.161,3.724,11.233,3.724c5.927,0,11.56-2.832,15.093-7.57 C447.067,177.238,445.35,165.43,437.03,159.225z M204.008,70.924l55.129,145.115c0.52,0.822,0.809,1.795,0.809,2.842 c0,2.966-2.404,5.375-5.376,5.375c-0.031,0-0.073,0-0.109,0h-50.104v24.088h16.665c0.069,0,0.134,0,0.203,0h1.501 c0.144,0,0.268,0.067,0.412,0.088c2.231-0.114,4.898,0.584,6.778,2.153l30.919,26.109c2.371,2.007,3.617,5.035,3.37,8.115 c0.031,0.316,0.047,0.631,0.047,0.951v15.932c1.811-1.773,4.189-2.756,6.729-2.756h15.639c2.571,0,4.991,1.003,6.813,2.82 c1.821,1.815,2.823,4.241,2.823,6.812v82.426c0,5.313-4.319,9.638-9.632,9.638h-15.639c-3.47,0-6.487-1.857-8.183-4.618 c-1.696,2.761-4.725,4.618-8.184,4.618H233.28c-1.869,0-3.633-0.546-5.169-1.517v13.67c-0.005,16.062-13.074,29.124-29.124,29.124 c-16.063,0-29.128-13.065-29.128-29.124l0.005-12.146h-15.155h-0.005c-5.31-0.007-9.632-4.331-9.632-9.634v-14.216 c0.005-1.543,0.398-2.976,1.044-4.262c-0.646-1.291-1.039-2.729-1.039-4.262v-14.216c0-1.539,0.394-2.973,1.039-4.264 c-0.646-1.291-1.039-2.724-1.039-4.262v-14.215c0-1.533,0.394-2.972,1.039-4.264c-0.646-1.291-1.039-2.725-1.039-4.263v-14.21 c0-5.312,4.323-9.632,9.627-9.638h15.156l0.005-45.223c0-2.968,2.407-5.376,5.375-5.376h18.374v-24.087h-50.111 c-1.766,0-3.423-0.872-4.423-2.323c-1-1.452-1.231-3.312-0.599-4.96l55.486-146.05c0.791-2.086,2.795-3.467,5.026-3.467 C201.224,67.452,203.213,68.833,204.008,70.924z M432.253,179.13c-1.581,2.124-4.012,3.247-6.469,3.247 c-1.675,0-3.363-0.522-4.812-1.595l-40.189-29.964v184.524c0,4.451-3.612,8.063-8.063,8.063s-8.063-3.612-8.063-8.063V138.789 L217.418,29.005L84.361,137.75v197.582c0,4.451-3.612,8.063-8.063,8.063s-8.063-3.612-8.063-8.063v-184.4l-36.239,29.62 c-1.496,1.226-3.302,1.815-5.098,1.815c-2.338,0-4.654-1.01-6.247-2.963c-2.816-3.449-2.309-8.525,1.142-11.346l71.657-58.566 V43.659c0-4.457,3.614-8.063,8.063-8.063h42.956c4.452,0,8.063,3.606,8.063,8.063V61.21l59.56-48.68 c0.16-0.129,0.338-0.221,0.509-0.339c0.221-0.155,0.441-0.322,0.678-0.451c0.254-0.14,0.517-0.247,0.779-0.354 c0.21-0.092,0.42-0.189,0.64-0.263c0.297-0.096,0.585-0.157,0.882-0.214c0.209-0.045,0.415-0.092,0.625-0.118 c0.304-0.04,0.601-0.045,0.908-0.045c0.215,0,0.423-0.011,0.638,0c0.302,0.021,0.588,0.076,0.882,0.131 c0.22,0.038,0.436,0.069,0.651,0.129c0.296,0.078,0.575,0.191,0.861,0.299c0.205,0.082,0.406,0.152,0.606,0.25 c0.286,0.139,0.548,0.31,0.816,0.488c0.142,0.097,0.301,0.16,0.44,0.262l152.937,114.028c1.911,0.556,3.527,1.769,4.578,3.41 l51.087,38.089C434.18,170.508,434.914,175.556,432.253,179.13z"/> <path d="M109.571,96.316l26.83-21.924v-22.67h-26.83V96.316z"/> <path d="M203.804,303.446c-0.124,0.064-0.226,0.169-0.349,0.226c0.068,0.122,0.103,0.258,0.16,0.385 c0.27,0.488,0.483,1.002,0.661,1.542c0.077,0.221,0.145,0.432,0.205,0.662c0.189,0.746,0.318,1.512,0.318,2.319l-0.005,14.216 c0,0.725-0.098,1.418-0.244,2.096c-0.053,0.226-0.139,0.436-0.203,0.654c-0.131,0.432-0.275,0.862-0.462,1.272 c-0.034,0.083-0.049,0.167-0.086,0.241c0.037,0.078,0.052,0.167,0.091,0.241c0.187,0.408,0.333,0.84,0.462,1.275 c0.063,0.226,0.149,0.435,0.205,0.66c0.144,0.673,0.241,1.371,0.241,2.096l-0.005,14.216c0,0.698-0.092,1.386-0.236,2.057 c-0.045,0.216-0.126,0.415-0.185,0.62c-0.128,0.452-0.28,0.898-0.478,1.327c-0.039,0.086-0.055,0.174-0.097,0.263 c0.037,0.069,0.047,0.153,0.078,0.226c0.2,0.426,0.339,0.867,0.48,1.324c0.063,0.208,0.145,0.403,0.192,0.618 c0.146,0.673,0.244,1.371,0.244,2.091l0.005,14.215c0,0.704-0.097,1.406-0.244,2.083c-0.048,0.195-0.118,0.385-0.171,0.573 c-0.134,0.472-0.296,0.944-0.507,1.385c-0.031,0.075-0.047,0.153-0.078,0.221c0.037,0.078,0.047,0.158,0.083,0.231 c0.195,0.421,0.341,0.86,0.475,1.302c0.063,0.221,0.145,0.42,0.197,0.641c0.147,0.673,0.244,1.374,0.244,2.089v14.221 c0,5.317-4.328,9.639-9.644,9.639h-14.54l-0.006,12.151c0,10.133,8.245,18.373,18.378,18.373c10.126,0,18.368-8.24,18.373-18.373 V292.412l-11.724,9.901C205.071,302.759,204.449,303.132,203.804,303.446z M206.604,412.781c0,4.21-3.424,7.633-7.622,7.633 c-4.205,0-7.627-3.417-7.627-7.617v-1.407h3.795c4.239,0,8.187-1.301,11.454-3.526V412.781z"/> <rect x="272.099" y="309.694" width="13.405" height="80.195"/> <polygon points="194.042,309.688 175.229,309.688 155.821,309.688 155.821,321.684 194.037,321.684 "/> <polygon points="194.042,377.905 174.932,377.905 155.815,377.905 155.815,389.895 175.229,389.89 175.234,389.89 194.042,389.89 "/> <path d="M182.882,290.276c-0.651-0.768-1.123-1.627-1.499-2.536c-0.061-0.146-0.131-0.283-0.184-0.431 c-0.317-0.876-0.488-1.79-0.543-2.729c-0.005-0.094-0.053-0.172-0.053-0.263v14.62h9.589L182.882,290.276z"/> <polygon points="194.037,344.413 194.042,338.419 194.042,332.434 155.821,332.434 155.821,344.418 174.974,344.418 "/> <polygon points="194.042,367.153 194.042,361.16 194.037,355.164 174.974,355.169 155.821,355.169 155.821,367.153 175.065,367.153 "/> </g> </g> </g>
</svg>